HIERARCHY
ROOT Hips
{
	OFFSET 0.00000 0.00000 0.00000
	CHANNELS 6 Xposition Yposition Zposition Zrotation Yrotation Xrotation 
	JOINT LHipJoint
	{
		OFFSET 0 0 0
		CHANNELS 3 Zrotation Yrotation Xrotation
		JOINT LeftUpLeg
		{
			OFFSET 1.40252 -1.71424 0.59123
			CHANNELS 3 Zrotation Yrotation Xrotation
			JOINT LeftLeg
			{
				OFFSET 2.50071 -6.87065 0.00000
				CHANNELS 3 Zrotation Yrotation Xrotation
				JOINT LeftFoot
				{
					OFFSET 2.50834 -6.89162 0.00000
					CHANNELS 3 Zrotation Yrotation Xrotation
					JOINT LeftToeBase
					{
						OFFSET 0.21528 -0.59149 1.64448
						CHANNELS 3 Zrotation Yrotation Xrotation
						End Site
						{
							OFFSET 0.00000 -0.00000 0.87921
						}
					}
				}
			}
		}
	}
	JOINT RHipJoint
	{
		OFFSET 0 0 0
		CHANNELS 3 Zrotation Yrotation Xrotation
		JOINT RightUpLeg
		{
			OFFSET -1.53651 -1.71424 0.59123
			CHANNELS 3 Zrotation Yrotation Xrotation
			JOINT RightLeg
			{
				OFFSET -2.45783 -6.75285 0.00000
				CHANNELS 3 Zrotation Yrotation Xrotation
				JOINT RightFoot
				{
					OFFSET -2.51921 -6.92147 0.00000
					CHANNELS 3 Zrotation Yrotation Xrotation
					JOINT RightToeBase
					{
						OFFSET -0.21777 -0.59831 1.59676
						CHANNELS 3 Zrotation Yrotation Xrotation
						End Site
						{
							OFFSET -0.00000 -0.00000 0.85779
						}
					}
				}
			}
		}
	}
	JOINT LowerBack
	{
		OFFSET 0 0 0
		CHANNELS 3 Zrotation Yrotation Xrotation
		JOINT Spine
		{
			OFFSET 0.02212 2.07622 0.03776
			CHANNELS 3 Zrotation Yrotation Xrotation
			JOINT Spine1
			{
				OFFSET -0.00949 2.08009 -0.00123
				CHANNELS 3 Zrotation Yrotation Xrotation
				JOINT Neck
				{
					OFFSET 0 0 0
					CHANNELS 3 Zrotation Yrotation Xrotation
					JOINT Neck1
					{
						OFFSET 0.00288 1.67184 0.11155
						CHANNELS 3 Zrotation Yrotation Xrotation
						JOINT Head
						{
							OFFSET -0.02412 1.66997 -0.22040
							CHANNELS 3 Zrotation Yrotation Xrotation
							End Site
							{
								OFFSET -0.01026 1.69043 -0.08683
							}
						}
					}
				}
				JOINT LeftShoulder
				{
					OFFSET 0 0 0
					CHANNELS 3 Zrotation Yrotation Xrotation
					JOINT LeftArm
					{
						OFFSET 3.97941 0.74048 0.81462
						CHANNELS 3 Zrotation Yrotation Xrotation
						JOINT LeftForeArm
						{
							OFFSET 5.01834 -0.00000 -0.00000
							CHANNELS 3 Zrotation Yrotation Xrotation
							JOINT LeftHand
							{
								OFFSET 3.48690 -0.00000 0.00000
								CHANNELS 3 Zrotation Yrotation Xrotation
								JOINT LeftFingerBase
								{
									OFFSET 0 0 0
									CHANNELS 3 Zrotation Yrotation Xrotation
									JOINT LeftHandIndex1
									{
										OFFSET 0.76799 -0.00000 0.00000
										CHANNELS 3 Zrotation Yrotation Xrotation
										End Site
										{
											OFFSET 0.61917 -0.00000 0.00000
										}
									}
								}
								JOINT LThumb
								{
									OFFSET 0 0 0
									CHANNELS 3 Zrotation Yrotation Xrotation
									End Site
									{
										OFFSET 0.62863 -0.00000 0.62863
									}
								}
							}
						}
					}
				}
				JOINT RightShoulder
				{
					OFFSET 0 0 0
					CHANNELS 3 Zrotation Yrotation Xrotation
					JOINT RightArm
					{
						OFFSET -3.88702 1.02123 0.44091
						CHANNELS 3 Zrotation Yrotation Xrotation
						JOINT RightForeArm
						{
							OFFSET -4.70164 -0.00000 0.00000
							CHANNELS 3 Zrotation Yrotation Xrotation
							JOINT RightHand
							{
								OFFSET -3.49911 -0.00000 0.00000
								CHANNELS 3 Zrotation Yrotation Xrotation
								JOINT RightFingerBase
								{
									OFFSET 0 0 0
									CHANNELS 3 Zrotation Yrotation Xrotation
									JOINT RightHandIndex1
									{
										OFFSET -0.73933 -0.00000 0.00000
										CHANNELS 3 Zrotation Yrotation Xrotation
										End Site
										{
											OFFSET -0.59607 -0.00000 0.00000
										}
									}
								}
								JOINT RThumb
								{
									OFFSET 0 0 0
									CHANNELS 3 Zrotation Yrotation Xrotation
									End Site
									{
										OFFSET -0.60517 -0.00000 0.60517
									}
								}
							}
						}
					}
				}
			}
		}
	}
}
MOTION
Frames: 5
Frame Time: 0.0166666
-8.3045 17.2425 1.0635 176.3460 95.5496 184.3580 0.0000 0.0000 0.0000 -17.1044 -6.6413 -26.4381 0.9155 6.0965 17.0645 -0.0607 6.8545 -8.1210 0.0152 0.7965 2.1892 0.0000 0.0000 0.0000 20.4319 1.2321 1.3239 -2.8343 -10.4219 30.3542 -0.1171 5.1512 -6.6025 -0.0044 0.4307 -1.1835 -0.4420 2.1552 -8.8140 0.1135 2.9217 1.9551 0.7961 1.4106 6.9733 3.3490 -0.7127 -5.9415 -3.3072 -0.8654 10.4879 -1.7753 -0.4268 4.5245 -0.0000 0.0000 0.0000 -79.1547 25.9065 51.4220 120.3661 -56.2116 -85.9634 -0.0000 0.0000 -14.8990 20.6779 44.2941 14.7658 -7.1250 0.0000 -0.0000 -31.3115 74.2439 -22.1508 -0.0000 0.0000 0.0000 93.1408 3.5780 72.3512 -104.8559 59.1494 -72.8288 0.0000 0.0000 1.7078 -20.7183 3.3470 -1.2650 7.1250 -0.0000 -0.0000 4.4827 -26.3971 2.0282
-7.8202 17.2643 0.9453 182.5460 95.0546 190.2790 0.0000 0.0000 0.0000 -18.8525 -5.9427 -25.2131 1.0327 6.4638 18.1361 0.0552 5.0531 -8.7942 0.0136 0.7535 2.0707 0.0000 0.0000 0.0000 18.2818 -0.2091 -0.0454 -3.5650 -11.5579 34.1855 0.0483 4.6758 -1.0484 -0.1022 -2.0613 5.6751 -0.4477 2.4914 -8.6334 -0.1821 3.3868 1.5988 0.5381 1.6500 6.5040 2.3654 -1.1606 -5.5255 -2.6856 -1.4069 10.8747 -1.4124 -0.6928 4.5614 0.0000 -0.0000 0.0000 -77.7806 25.2570 52.7655 121.3630 -55.9357 -86.7905 -0.0000 0.0000 -15.4154 22.4546 43.9666 16.0092 -7.1250 0.0000 -0.0000 -28.3503 74.6467 -20.2079 0.0000 -0.0000 0.0000 92.7034 0.9384 71.3985 -103.8993 59.2573 -72.0071 0.0000 0.0000 1.6781 -21.6302 3.9242 -1.5545 7.1250 -0.0000 -0.0000 3.7804 -25.7573 1.7656
-7.3471 17.2590 0.8305 193.1160 94.3147 200.3990 0.0000 0.0000 0.0000 -20.6234 -7.0173 -23.2539 1.1636 6.8478 19.2653 0.1525 4.4653 -10.3734 0.0284 1.0874 2.9894 0.0000 0.0000 0.0000 15.8120 -2.2650 -2.3602 -4.7485 -13.0948 39.7244 -0.0124 2.9854 4.8937 -0.6824 -5.2817 14.7139 -0.5758 2.8001 -8.1245 -0.5311 3.8269 1.2483 0.2683 1.8760 5.8569 0.7372 -1.6929 -5.1490 -1.4464 -2.0743 11.4625 -0.7369 -1.0161 4.7037 0.0000 0.0000 0.0000 -76.6662 23.6173 54.4573 122.0606 -55.7354 -87.3677 -0.0000 0.0000 -15.7903 23.4246 43.9562 16.7371 -7.1250 0.0000 -0.0000 -27.0879 75.0022 -19.4760 0.0000 0.0000 0.0000 92.2888 -1.8916 69.8385 -102.1644 59.4334 -70.5146 0.0000 0.0000 2.4948 -22.5464 4.7650 -1.9752 7.1250 -0.0000 -0.0000 3.0846 -24.8224 1.5068
-6.9133 17.2240 0.7279 208.0640 93.4485 215.1530 0.0000 0.0000 0.0000 -22.1164 -8.1713 -22.5854 1.4955 7.7251 21.8821 0.3267 3.6060 -12.7372 0.0405 1.2991 3.5722 0.0000 0.0000 0.0000 14.0700 -3.2968 -5.7623 -6.4634 -14.8628 46.8143 -0.2088 0.7329 8.9296 -0.8528 -5.8895 16.4640 -0.6640 3.0189 -7.6781 -0.8540 4.1370 0.8295 -0.0173 2.0396 5.1816 -1.1175 -2.2834 -3.8354 -0.1169 -2.8421 11.3254 0.0196 -1.3990 4.4306 -0.0000 -0.0000 0.0000 -76.0173 21.1784 56.3234 122.7697 -55.5255 -87.9531 -0.0000 0.0000 -16.1513 24.5783 43.8354 17.5769 -7.1250 0.0000 -0.0000 -25.2796 75.3392 -18.3136 -0.0000 -0.0000 0.0000 91.8629 -4.6594 68.1749 -100.1642 59.6060 -68.7908 0.0000 0.0000 2.9192 -23.3121 4.6500 -2.0008 7.1250 -0.0000 -0.0000 2.5102 -24.9183 1.2200
-6.5056 17.1651 0.6351 228.6480 92.9537 235.1350 0.0000 0.0000 0.0000 -23.5630 -8.0481 -22.2627 1.9880 8.8411 25.2995 0.6224 1.7356 -15.6301 0.0404 1.2979 3.5688 0.0000 0.0000 0.0000 13.0142 -3.2747 -9.1988 -8.5799 -16.5296 54.6255 -0.4359 -1.0726 12.1448 -0.8974 -6.0377 16.8938 -0.6862 3.2458 -7.0547 -1.1824 4.4523 0.8668 -0.3436 2.2038 4.8937 -3.0105 -2.8354 -2.6802 1.3478 -3.6157 10.9439 0.8230 -1.7900 4.1531 0.0000 -0.0000 0.0000 -75.9465 17.6192 58.1755 123.5716 -55.2806 -88.6131 -0.0000 0.0000 -16.4523 25.1670 43.7326 17.9944 -7.1250 0.0000 -0.0000 -24.2375 75.4770 -17.6080 0.0000 -0.0000 0.0000 91.6655 -6.9787 65.8314 -97.1123 59.8080 -66.1555 0.0000 0.0000 4.7248 -23.8581 5.1689 -2.2817 7.1250 -0.0000 -0.0000 2.1058 -24.3313 1.0518
